<svg  viewBox="0 0 24 24" fill="none" xmlns="http://www.w3.org/2000/svg">
<path d="M19.5492 11.4969C19.0942 10.4728 18.4328 9.55363 17.6063 8.79689L16.9242 8.17111C16.9011 8.15045 16.8732 8.13578 16.843 8.1284C16.8129 8.12103 16.7814 8.12116 16.7513 8.1288C16.7212 8.13643 16.6935 8.15134 16.6705 8.1722C16.6475 8.19306 16.63 8.21925 16.6195 8.24846L16.3148 9.12267C16.125 9.67111 15.7758 10.2313 15.2812 10.782C15.2484 10.8172 15.2109 10.8266 15.1852 10.8289C15.1594 10.8313 15.1195 10.8266 15.0844 10.7938C15.0516 10.7656 15.0352 10.7235 15.0375 10.6813C15.1242 9.27033 14.7023 7.67892 13.7789 5.94689C13.0148 4.50783 11.9531 3.38518 10.6266 2.60236L9.65859 2.03283C9.53203 1.95783 9.37031 2.05627 9.37734 2.20393L9.42891 3.32893C9.46406 4.09768 9.375 4.77736 9.16406 5.34221C8.90625 6.03361 8.53594 6.6758 8.0625 7.25236C7.73302 7.65306 7.35959 8.01548 6.94922 8.33283C5.96087 9.09259 5.15722 10.0661 4.59844 11.1805C4.04103 12.3046 3.75068 13.5422 3.75 14.7969C3.75 15.9031 3.96797 16.9742 4.39922 17.9844C4.81562 18.957 5.41654 19.8396 6.16875 20.5836C6.92813 21.3336 7.80938 21.9242 8.79141 22.3344C9.80859 22.7609 10.8867 22.9766 12 22.9766C13.1133 22.9766 14.1914 22.7609 15.2086 22.3367C16.1882 21.929 17.079 21.3343 17.8313 20.5859C18.5906 19.8359 19.1859 18.9594 19.6008 17.9867C20.0314 16.9793 20.2523 15.8948 20.25 14.7992C20.25 13.6555 20.0156 12.5445 19.5492 11.4969ZM16.7109 19.4492C15.4523 20.6961 13.7812 21.3805 12 21.3805C10.2188 21.3805 8.54766 20.6961 7.28906 19.4492C6.03516 18.2047 5.34375 16.5547 5.34375 14.7992C5.34375 13.7797 5.57344 12.8024 6.02578 11.893C6.46641 11.0047 7.12266 10.2102 7.91953 9.59845C8.42775 9.20984 8.8887 8.76305 9.29297 8.2672C9.87891 7.55236 10.3383 6.75549 10.657 5.90002C10.7878 5.54714 10.8828 5.18203 10.9406 4.81018C11.5055 5.33049 11.9789 5.95861 12.375 6.69455C13.1578 8.16174 13.5188 9.4672 13.4484 10.5781C13.4316 10.8398 13.4744 11.1018 13.5734 11.3446C13.6725 11.5874 13.8253 11.8045 14.0203 11.9797C14.1893 12.1324 14.387 12.25 14.6019 12.3256C14.8167 12.4012 15.0445 12.4334 15.2719 12.4203C15.7336 12.3969 16.1578 12.193 16.4672 11.8485C16.7789 11.4992 17.0484 11.143 17.2734 10.7797C17.6016 11.1992 17.8758 11.6563 18.0938 12.1485C18.4664 12.9875 18.6562 13.8805 18.6562 14.7992C18.6562 16.5547 17.9648 18.207 16.7109 19.4492Z" fill="#8C8CA1"/>
<path d="M19.5492 11.4969C19.0942 10.4728 18.4328 9.55363 17.6063 8.79689L16.9242 8.17111C16.9011 8.15045 16.8732 8.13578 16.843 8.1284C16.8129 8.12103 16.7814 8.12116 16.7513 8.1288C16.7212 8.13643 16.6935 8.15134 16.6705 8.1722C16.6475 8.19306 16.63 8.21925 16.6195 8.24846L16.3148 9.12267C16.125 9.67111 15.7758 10.2313 15.2812 10.782C15.2484 10.8172 15.2109 10.8266 15.1852 10.8289C15.1594 10.8313 15.1195 10.8266 15.0844 10.7938C15.0516 10.7656 15.0352 10.7235 15.0375 10.6813C15.1242 9.27033 14.7023 7.67892 13.7789 5.94689C13.0148 4.50783 11.9531 3.38518 10.6266 2.60236L9.65859 2.03283C9.53203 1.95783 9.37031 2.05627 9.37734 2.20393L9.42891 3.32893C9.46406 4.09768 9.375 4.77736 9.16406 5.34221C8.90625 6.03361 8.53594 6.6758 8.0625 7.25236C7.73302 7.65306 7.35959 8.01548 6.94922 8.33283C5.96087 9.09259 5.15722 10.0661 4.59844 11.1805C4.04103 12.3046 3.75068 13.5422 3.75 14.7969C3.75 15.9031 3.96797 16.9742 4.39922 17.9844C4.81562 18.957 5.41654 19.8396 6.16875 20.5836C6.92813 21.3336 7.80938 21.9242 8.79141 22.3344C9.80859 22.7609 10.8867 22.9766 12 22.9766C13.1133 22.9766 14.1914 22.7609 15.2086 22.3367C16.1882 21.929 17.079 21.3343 17.8313 20.5859C18.5906 19.8359 19.1859 18.9594 19.6008 17.9867C20.0314 16.9793 20.2523 15.8948 20.25 14.7992C20.25 13.6555 20.0156 12.5445 19.5492 11.4969ZM16.7109 19.4492C15.4523 20.6961 13.7812 21.3805 12 21.3805C10.2188 21.3805 8.54766 20.6961 7.28906 19.4492C6.03516 18.2047 5.34375 16.5547 5.34375 14.7992C5.34375 13.7797 5.57344 12.8024 6.02578 11.893C6.46641 11.0047 7.12266 10.2102 7.91953 9.59845C8.42775 9.20984 8.8887 8.76305 9.29297 8.2672C9.87891 7.55236 10.3383 6.75549 10.657 5.90002C10.7878 5.54714 10.8828 5.18203 10.9406 4.81018C11.5055 5.33049 11.9789 5.95861 12.375 6.69455C13.1578 8.16174 13.5188 9.4672 13.4484 10.5781C13.4316 10.8398 13.4744 11.1018 13.5734 11.3446C13.6725 11.5874 13.8253 11.8045 14.0203 11.9797C14.1893 12.1324 14.387 12.25 14.6019 12.3256C14.8167 12.4012 15.0445 12.4334 15.2719 12.4203C15.7336 12.3969 16.1578 12.193 16.4672 11.8485C16.7789 11.4992 17.0484 11.143 17.2734 10.7797C17.6016 11.1992 17.8758 11.6563 18.0938 12.1485C18.4664 12.9875 18.6562 13.8805 18.6562 14.7992C18.6562 16.5547 17.9648 18.207 16.7109 19.4492Z" stroke="white"/>
</svg>
