<?xml version="1.0" encoding="UTF-8" standalone="no"?> <svg id="lyne" xmlns="http://www.w3.org/2000/svg" viewBox="0 0 64 64"><defs><style>.cls-1{fill:none;stroke:#000;stroke-linecap:round;stroke-linejoin:round;stroke-width:2px;}</style></defs><title>list</title><path d="M51.85,7.59a4.39,4.39,0,0,0-4.34-4.42H12.19A4.41,4.41,0,0,0,7.86,7.6V51.16a4.39,4.39,0,0,0,4.33,4.43H43.86a1,1,0,0,0,0-2H12.19a2.39,2.39,0,0,1-2.33-2.43V7.6a2.4,2.4,0,0,1,2.33-2.43H47.51a2.38,2.38,0,0,1,2.34,2.42V33a1,1,0,0,0,2,0Z"/><ellipse class="cls-1" cx="50.22" cy="45.59" rx="6.99" ry="7.19"/><line class="cls-1" x1="60.86" y1="57.38" x2="54.58" y2="50.02"/><line class="cls-1" x1="15.27" y1="14" x2="19.9" y2="14"/><line class="cls-1" x1="15.27" y1="24.8" x2="19.9" y2="24.8"/><line class="cls-1" x1="15.27" y1="33.81" x2="19.9" y2="33.81"/><line class="cls-1" x1="15.27" y1="44.61" x2="19.9" y2="44.61"/><line class="cls-1" x1="29.86" y1="14" x2="45.63" y2="14"/><line class="cls-1" x1="29.86" y1="24.8" x2="45.63" y2="24.8"/><line class="cls-1" x1="29.86" y1="33.81" x2="45.63" y2="33.81"/><line class="cls-1" x1="29.86" y1="43.79" x2="39.09" y2="43.79"/></svg>